TITLE ""
FILE "2Q_t_0653-0670.mp3" MP3
  TRACK 01 AUDIO
    TITLE "2Q_t_0653-0670_01"
    INDEX 01 00:00:00
  TRACK 02 AUDIO
    TITLE "2Q_t_0653-0670_02"
    INDEX 01 00:00:12
  TRACK 03 AUDIO
    TITLE "2Q_t_0653-0670_03"
    INDEX 01 00:01:39
  TRACK 04 AUDIO
    TITLE "2Q_t_0653-0670_04"
    INDEX 01 00:02:23
  TRACK 05 AUDIO
    TITLE "2Q_t_0653-0670_05"
    INDEX 01 00:04:08
  TRACK 06 AUDIO
    TITLE "2Q_t_0653-0670_06"
    INDEX 01 00:04:51
  TRACK 07 AUDIO
    TITLE "2Q_t_0653-0670_07"
    INDEX 01 00:05:58
  TRACK 08 AUDIO
    TITLE "2Q_t_0653-0670_08"
    INDEX 01 00:06:31
  TRACK 09 AUDIO
    TITLE "2Q_t_0653-0670_09"
    INDEX 01 00:07:63
  TRACK 10 AUDIO
    TITLE "2Q_t_0653-0670_10"
    INDEX 01 00:08:33
  TRACK 11 AUDIO
    TITLE "2Q_t_0653-0670_11"
    INDEX 01 00:09:64
  TRACK 12 AUDIO
    TITLE "2Q_t_0653-0670_12"
    INDEX 01 00:10:36
  TRACK 13 AUDIO
    TITLE "2Q_t_0653-0670_13"
    INDEX 01 00:11:41
  TRACK 14 AUDIO
    TITLE "2Q_t_0653-0670_14"
    INDEX 01 00:12:12
  TRACK 15 AUDIO
    TITLE "2Q_t_0653-0670_15"
    INDEX 01 00:13:07
  TRACK 16 AUDIO
    TITLE "2Q_t_0653-0670_16"
    INDEX 01 00:13:56
  TRACK 17 AUDIO
    TITLE "2Q_t_0653-0670_17"
    INDEX 01 00:18:02
  TRACK 18 AUDIO
    TITLE "2Q_t_0653-0670_18"
    INDEX 01 00:18:47
  TRACK 19 AUDIO
    TITLE "2Q_t_0653-0670_19"
    INDEX 01 00:19:49
  TRACK 20 AUDIO
    TITLE "2Q_t_0653-0670_20"
    INDEX 01 00:20:25
  TRACK 21 AUDIO
    TITLE "2Q_t_0653-0670_21"
    INDEX 01 00:21:52
  TRACK 22 AUDIO
    TITLE "2Q_t_0653-0670_22"
    INDEX 01 00:22:22
  TRACK 23 AUDIO
    TITLE "2Q_t_0653-0670_23"
    INDEX 01 00:23:45
  TRACK 24 AUDIO
    TITLE "2Q_t_0653-0670_24"
    INDEX 01 00:24:21
  TRACK 25 AUDIO
    TITLE "2Q_t_0653-0670_25"
    INDEX 01 00:25:46
  TRACK 26 AUDIO
    TITLE "2Q_t_0653-0670_26"
    INDEX 01 00:26:16
  TRACK 27 AUDIO
    TITLE "2Q_t_0653-0670_27"
    INDEX 01 00:27:46
  TRACK 28 AUDIO
    TITLE "2Q_t_0653-0670_28"
    INDEX 01 00:28:18
  TRACK 29 AUDIO
    TITLE "2Q_t_0653-0670_29"
    INDEX 01 00:30:29
  TRACK 30 AUDIO
    TITLE "2Q_t_0653-0670_30"
    INDEX 01 00:31:01
  TRACK 31 AUDIO
    TITLE "2Q_t_0653-0670_31"
    INDEX 01 00:32:01
  TRACK 32 AUDIO
    TITLE "2Q_t_0653-0670_32"
    INDEX 01 00:32:48
  TRACK 33 AUDIO
    TITLE "2Q_t_0653-0670_33"
    INDEX 01 00:36:73
  TRACK 34 AUDIO
    TITLE "2Q_t_0653-0670_34"
    INDEX 01 00:37:41
  TRACK 35 AUDIO
    TITLE "2Q_t_0653-0670_35"
    INDEX 01 00:38:44
  TRACK 36 AUDIO
    TITLE "2Q_t_0653-0670_36"
    INDEX 01 00:39:12
  TRACK 37 AUDIO
    TITLE "2Q_t_0653-0670_37"
    INDEX 01 00:41:21
  TRACK 38 AUDIO
    TITLE "2Q_t_0653-0670_38"
    INDEX 01 00:41:64
  TRACK 39 AUDIO
    TITLE "2Q_t_0653-0670_39"
    INDEX 01 00:43:00
  TRACK 40 AUDIO
    TITLE "2Q_t_0653-0670_40"
    INDEX 01 00:43:49
  TRACK 41 AUDIO
    TITLE "2Q_t_0653-0670_41"
    INDEX 01 00:45:62
  TRACK 42 AUDIO
    TITLE "2Q_t_0653-0670_42"
    INDEX 01 00:46:32
  TRACK 43 AUDIO
    TITLE "2Q_t_0653-0670_43"
    INDEX 01 00:47:43
  TRACK 44 AUDIO
    TITLE "2Q_t_0653-0670_44"
    INDEX 01 00:48:27
  TRACK 45 AUDIO
    TITLE "2Q_t_0653-0670_45"
    INDEX 01 00:51:06
  TRACK 46 AUDIO
    TITLE "2Q_t_0653-0670_46"
    INDEX 01 00:51:51
  TRACK 47 AUDIO
    TITLE "2Q_t_0653-0670_47"
    INDEX 01 00:52:52
  TRACK 48 AUDIO
    TITLE "2Q_t_0653-0670_48"
    INDEX 01 00:53:22
  TRACK 49 AUDIO
    TITLE "2Q_t_0653-0670_49"
    INDEX 01 00:56:05
  TRACK 50 AUDIO
    TITLE "2Q_t_0653-0670_50"
    INDEX 01 00:56:52
  TRACK 51 AUDIO
    TITLE "2Q_t_0653-0670_51"
    INDEX 01 00:57:61
  TRACK 52 AUDIO
    TITLE "2Q_t_0653-0670_52"
    INDEX 01 00:58:31
  TRACK 53 AUDIO
    TITLE "2Q_t_0653-0670_53"
    INDEX 01 01:00:44
  TRACK 54 AUDIO
    TITLE "2Q_t_0653-0670_54"
    INDEX 01 01:01:12
  TRACK 55 AUDIO
    TITLE "2Q_t_0653-0670_55"
    INDEX 01 01:02:35
  TRACK 56 AUDIO
    TITLE "2Q_t_0653-0670_56"
    INDEX 01 01:03:05
  TRACK 57 AUDIO
    TITLE "2Q_t_0653-0670_57"
    INDEX 01 01:05:12
  TRACK 58 AUDIO
    TITLE "2Q_t_0653-0670_58"
    INDEX 01 01:05:57
  TRACK 59 AUDIO
    TITLE "2Q_t_0653-0670_59"
    INDEX 01 01:06:60
  TRACK 60 AUDIO
    TITLE "2Q_t_0653-0670_60"
    INDEX 01 01:07:32
  TRACK 61 AUDIO
    TITLE "2Q_t_0653-0670_61"
    INDEX 01 01:09:39
  TRACK 62 AUDIO
    TITLE "2Q_t_0653-0670_62"
    INDEX 01 01:10:09
  TRACK 63 AUDIO
    TITLE "2Q_t_0653-0670_63"
    INDEX 01 01:11:12
  TRACK 64 AUDIO
    TITLE "2Q_t_0653-0670_64"
    INDEX 01 01:11:61
  TRACK 65 AUDIO
    TITLE "2Q_t_0653-0670_65"
    INDEX 01 01:15:30
  TRACK 66 AUDIO
    TITLE "2Q_t_0653-0670_66"
    INDEX 01 01:15:73
  TRACK 67 AUDIO
    TITLE "2Q_t_0653-0670_67"
    INDEX 01 01:17:05
  TRACK 68 AUDIO
    TITLE "2Q_t_0653-0670_68"
    INDEX 01 01:17:58
  TRACK 69 AUDIO
    TITLE "2Q_t_0653-0670_69"
    INDEX 01 01:21:60
  TRACK 70 AUDIO
    TITLE "2Q_t_0653-0670_70"
    INDEX 01 01:22:30
  TRACK 71 AUDIO
    TITLE "2Q_t_0653-0670_71"
    INDEX 01 01:23:29
  TRACK 72 AUDIO
    TITLE "2Q_t_0653-0670_72"
    INDEX 01 01:24:05
  TRACK 73 AUDIO
    TITLE "2Q_t_0653-0670_73"
    INDEX 01 01:26:06
